<?xml version="1.0" encoding="UTF-8" standalone="no"?>
<svg
   version="1.1"
   width="1024"
   height="1024"
   id="svg101"
   sodipodi:docname="handmade.svg"
   xml:space="preserve"
   inkscape:version="1.4.2 (ebf0e940, 2025-05-08)"
   xmlns:inkscape="http://www.inkscape.org/namespaces/inkscape"
   xmlns:sodipodi="http://sodipodi.sourceforge.net/DTD/sodipodi-0.dtd"
   xmlns="http://www.w3.org/2000/svg"
   xmlns:svg="http://www.w3.org/2000/svg"><defs
     id="defs101" /><sodipodi:namedview
     id="namedview101"
     pagecolor="#7b7b7b"
     bordercolor="#000000"
     borderopacity="0.25"
     inkscape:showpageshadow="2"
     inkscape:pageopacity="0.0"
     inkscape:pagecheckerboard="0"
     inkscape:deskcolor="#d1d1d1"
     inkscape:zoom="0.86289987"
     inkscape:cx="427.62783"
     inkscape:cy="408.50626"
     inkscape:window-width="2560"
     inkscape:window-height="1440"
     inkscape:window-x="0"
     inkscape:window-y="0"
     inkscape:window-maximized="0"
     inkscape:current-layer="svg101" /><path
     style="fill:#f9f9f9"
     d="m 495.39046,918.59743 c -1.65,-0.24219 -12.675,-1.56128 -24.5,-2.9313 -39.099,-4.52992 -69.42593,-12.59155 -105.84556,-28.13629 -70.22494,-29.97362 -130.83141,-81.09613 -169.33011,-142.83262 -27.23827,-43.67926 -44.76458,-86.64809 -54.81676,-134.39286 -5.65046,-26.83802 -6.51201,-37.11935 -6.46136,-77.10714 0.0448,-35.37713 0.13059,-36.96145 2.7886,-51.5 3.34001,-18.26886 8.67665,-41.46995 12.18285,-52.96497 2.19133,-7.18424 2.98621,-8.62339 5.04884,-9.14108 2.9835,-0.74881 7.06485,1.70289 8.65892,5.2015 0.94216,2.06781 0.33685,5.74426 -3.57232,21.69711 -9.19191,37.51113 -11.16072,53.02788 -11.12853,87.70744 0.0207,22.32754 0.3834,28.92077 2.3034,41.87468 7.11996,48.03711 18.90533,86.65758 38.18305,125.12532 6.7327,13.43478 21.00522,37.79109 28.70812,48.99093 30.83977,44.84031 79.43127,86.66512 131.20983,112.93799 17.32216,8.7894 32.15014,15.32547 32.95045,14.52432 0.34131,-0.34166 0.59947,-31.52091 0.5737,-69.28722 -0.0432,-63.37602 -0.21822,-70.39462 -2.27128,-91.10382 -3.20311,-32.30963 -4.54272,-36.58311 -15.22291,-48.5622 -3.43254,-3.85 -8.14696,-9.925 -10.47648,-13.5 -8.04889,-12.35224 -16.525,-33.52607 -19.51512,-48.75 -0.67516,-3.4375 -1.61337,-6.25 -2.08491,-6.25 -0.47155,0 -2.0624,1.9125 -3.53522,4.25 -9.33094,14.80897 -24.32045,25.59111 -43.05574,30.9705 -11.17239,3.20789 -28.50414,3.1536 -40.10883,-0.12564 -9.17015,-2.59128 -20.22194,-9.13414 -27.17715,-16.08935 -3.79227,-3.79227 -4.08734,-4.47225 -3.80815,-8.77582 0.36927,-5.69195 -1.16118,-4.82202 26.58915,-15.11377 11.70758,-4.34198 23.03695,-9.10757 25.17639,-10.5902 7.77327,-5.38689 8.92725,-13.60115 4.04982,-28.8275 -1.73821,-5.42634 -3.93911,-10.21989 -5.26365,-11.46423 -3.88778,-3.65238 -9.37872,-5.40836 -14.58334,-4.66369 -7.07585,1.0124 -29.72491,8.67897 -38.10016,12.89669 -9.27146,4.66903 -13.43849,4.96334 -16.69359,1.17907 -3.03268,-3.5257 -3.11223,-9.02743 -0.26449,-18.29072 6.27865,-20.42349 18.86105,-35.72157 36.743,-44.67331 19.00874,-9.5158 36.1391,-10.19331 60.64952,-2.39871 7.7,2.44869 15.4625,4.72544 17.25,5.05943 l 3.25,0.60725 0.0183,-7.725 c 0.0506,-21.34148 8.12141,-53.69873 17.64336,-70.73536 3.75633,-6.72081 13.31874,-16.61686 19.09388,-19.76008 10.56362,-5.74945 28.48172,-7.71161 34.86675,-3.81817 l 3.12232,1.90392 2.37768,-5.12121 c 9.70574,-20.90484 40.3857,-31.65085 60.47213,-21.18107 l 6.2922,3.27968 0.5964,-2.71551 c 0.328,-1.49353 2.3775,-5.44137 4.5544,-8.77299 13.191,-20.18829 46.1419,-24.42004 63.2709,-8.12563 2.2095,2.10178 4.2311,3.82142 4.4926,3.82142 0.2615,0 2.4705,-1.83905 4.909,-4.08678 15.2085,-14.01869 44.4569,-13.82697 59.1226,0.38753 6.6503,6.44576 8.2616,10.43993 9.3337,23.13696 0.5137,6.08426 1.1618,13.77669 1.4401,17.09429 0.6827,8.13575 1.1003,8.66391 5.82,7.36072 6.8123,-1.88096 12.4386,-8.40006 20.5004,-23.75318 8.8532,-16.86044 14.026,-23.67477 22.17,-29.20527 7.5182,-5.10549 18.5193,-10.2194 25.9033,-12.0412 7.6428,-1.8857 27.6873,-1.61146 36.4535,0.49873 8.9776,2.16106 23.6146,9.15155 30.2835,14.46307 8.0164,6.38482 13.263,13.53687 13.263,18.07994 0,5.75226 -2.1359,6.96121 -17.9441,10.15693 -35.9381,7.26507 -47.1154,12.35892 -47.3382,21.57357 -0.051,2.10908 0.4089,9.24256 1.0218,15.85217 2.349,25.32851 10.4182,35.79615 26.3135,34.13476 7.3959,-0.77301 18.0441,-3.45557 36.6668,-9.23728 16.171,-5.02056 19.3405,-5.33992 22.2288,-2.23975 4.2794,4.59349 3.8927,10.25998 -1.588,23.26381 -11.753,27.8859 -35.3739,43.7549 -67.3859,45.27112 -9.6904,0.45898 -12.8745,0.20616 -20,-1.58802 -10.2121,-2.57138 -21.5307,-7.89636 -32.9255,-15.49025 -9.0256,-6.01495 -10.6078,-6.64674 -9.7216,-3.88187 0.3085,0.9625 2.4109,8.05 4.672,15.75 2.2611,7.7 5.2459,17.15 6.6328,21 8.4728,23.52038 6.1163,30.48299 -23.9633,70.80154 -22.4058,30.03254 -47.4103,66.59376 -50.745,74.19846 -0.9647,2.2 -2.0495,6.475 -2.4107,9.5 -1.7191,14.39559 6.8806,68.51478 17.956,113 2.944,11.825 5.8799,24.2 6.5242,27.5 0.6443,3.3 2.6982,12.525 4.5643,20.5 1.8661,7.975 4.9578,21.86638 6.8705,30.86973 1.9127,9.00334 3.6606,16.55266 3.8842,16.77625 0.7191,0.71914 23.772,-7.72831 37.6666,-13.80249 18.5299,-8.10056 33.6469,-16.445 52.5117,-28.986 43.7418,-29.07877 79.8366,-65.26034 104.6974,-104.9492 29.785,-47.55017 48.47,-96.9792 55.7227,-147.40829 6.3899,-44.42953 4.7382,-95.65319 -4.514,-140 -1.377,-6.6 -2.747,-13.36039 -3.0444,-15.0231 -0.7634,-4.268 2.0326,-7.26652 7.1474,-7.66515 l 4,-0.31175 1.8102,5.45991 c 2.6864,8.10267 8.2382,37.18713 10.7927,56.54009 2.9617,22.43831 3.1988,64.9681 0.4905,88 -8.6113,73.23195 -35.3179,140.32007 -77.5062,194.6988 -39.9238,51.45981 -95.3887,93.50939 -155.0872,117.57616 -46.8413,18.88352 -93.5623,28.93799 -138,29.69794 -11.825,0.20222 -22.85,0.16951 -24.5,-0.0727 z m 43,-17.42425 c 25.4765,-2.36787 64.0629,-8.60365 68.75,-11.11039 1.5552,-0.83176 1.5913,-1.18246 0.3243,-3.15075 -2.405,-3.73614 -8.8788,-32.50022 -21.542,-95.71482 -13.7482,-68.63081 -16.7394,-85.76176 -17.6808,-101.2608 l -0.6632,-10.92045 -3.0942,0.54489 c -24.4793,4.31089 -38.3955,3.00363 -56.1111,-5.27092 -8.9496,-4.18018 -15.483,-9.3267 -15.483,-12.19631 0,-2.49485 2.5692,-2.44064 8.6671,0.18288 8.3267,3.58245 22.4725,6.93673 31.8329,7.54826 11.1131,0.72604 19.8541,-1.12812 29.6937,-6.2987 8.6175,-4.52837 12.5083,-8.88541 27.5295,-30.82885 6.4004,-9.35 19.6024,-27.8 29.3376,-41 9.7353,-13.2 19.4205,-26.7 21.5228,-30 8.7929,-13.8022 10.2684,-22.29981 5.9374,-34.19279 -3.7313,-10.24596 -12.0467,-38.46299 -17.5847,-59.67036 -6.0652,-23.2266 -8.6972,-29.33742 -15.1253,-35.11685 -7.7874,-7.00154 -18.4023,-9.46484 -40.9386,-9.50019 -8.9211,-0.014 -12.9219,0.34709 -13.6303,1.23019 -0.5515,0.6875 -1.5035,5.57501 -2.1154,10.86114 -1.2652,10.92796 -2.801,15.31024 -6.62,18.88886 -2.5011,2.34376 -3.3347,2.5 -13.3373,2.5 -12.1329,0 -15.2482,-1.11452 -19.8015,-7.08424 -2.3646,-3.10013 -2.7963,-4.74591 -3.1843,-12.13966 -0.5397,-10.28162 -1.4946,-9.22259 -3.6257,4.02087 -2.4225,15.05421 -2.2368,16.65017 2.5722,22.11354 10.214,11.60375 39.9167,20.20134 57.7024,16.70223 6.8679,-1.35119 17.3946,-5.42623 21.4183,-8.29137 3.4507,-2.45711 7.1422,-2.07052 7.5507,0.79073 0.4068,2.85025 -3.6721,7.48091 -11.5266,13.08576 -3.7053,2.64404 -8.3999,7.24552 -10.9345,10.7177 l -4.4416,6.08444 3.8006,3.26108 c 3.9024,3.34844 13.8662,9.41493 25.2412,15.36816 3.5423,1.85392 6.5999,3.88103 6.7946,4.50469 0.5733,1.8362 -2.6619,4.36755 -5.5567,4.34777 -4.1013,-0.028 -18.3351,-6.26234 -25.047,-10.97047 -3.3008,-2.31534 -6.4748,-3.91713 -7.0534,-3.55953 -1.5198,0.9393 4.457,12.26698 12.3213,23.35233 3.6303,5.11722 6.6006,9.86472 6.6006,10.55 0,1.79557 -2.114,3.64597 -4.1652,3.64597 -4.3629,0 -15.4705,-13.51555 -22.8061,-27.75 -2.3384,-4.5375 -4.7141,-8.25 -5.2793,-8.25 -2.5644,0 -21.8504,6.53274 -27.2494,9.23017 -13.9027,6.94603 -27.2837,17.49221 -37.9701,29.92596 -21.2194,24.6889 -27.0244,39.51453 -26.3627,67.32899 0.3024,12.71034 0.1722,14.01614 -1.4283,14.32545 -1.2893,0.24918 -2.4223,-1.08611 -4.2298,-4.98512 -7.8944,-17.0296 -5.29,-39.54308 7.0939,-61.3214 6.4226,-11.29488 18.7137,-27.64612 25.8313,-34.36415 3.1233,-2.94806 5.5408,-5.45918 5.3722,-5.58027 -1.525,-1.09528 -13.9881,-3.57532 -14.998,-2.98449 -0.7197,0.42104 -5.0015,3.4272 -9.5152,6.68035 -15.3861,11.08918 -29.7654,13.87188 -43.37178,8.39331 -3.61816,-1.45684 -6.94283,-2.6488 -7.38817,-2.6488 -0.44534,0 -2.7278,1.76803 -5.07213,3.92896 -5.49858,5.06841 -10.7821,7.71871 -19.18992,9.62596 -17.70085,4.01529 -40.41014,15.34818 -52.32456,26.11215 -3.4042,3.07548 -3.66738,3.67566 -2.89756,6.60783 0.46569,1.77381 2.02868,8.34968 3.47331,14.61306 6.44391,27.93848 14.82208,45.96733 27.17434,58.47601 15.7593,15.95887 39.23861,23.00261 60.30317,18.09081 3.575,-0.83362 11.0961,-3.75196 16.7136,-6.48522 5.6175,-2.73326 10.68,-4.96956 11.25,-4.96956 4.7846,0 -8.0078,13.95443 -16.3806,17.86862 -14.02457,6.55627 -31.03417,7.69194 -53.16179,3.54942 l -3.07877,-0.57637 1.24132,7.32916 c 4.79357,28.30275 4.80581,28.56388 5.17485,110.4574 l 0.35207,78.12823 6.69465,2.09653 c 37.14837,11.63358 97.62967,18.47496 133.69467,15.12297 z m -27.3599,-63.72596 c -0.5724,-3.7125 -1.3062,-9.45 -1.6308,-12.75 -0.7814,-7.94437 -3.6135,-29.00357 -9.1448,-68 -2.7872,-19.65003 -4.6018,-36.19115 -4.7018,-42.85968 -0.1491,-9.95225 0.01,-10.97564 1.8997,-12.24742 4.1389,-2.78495 5.1817,-0.32101 7.4516,17.6071 1.149,9.075 3.6181,26.85 5.487,39.5 5.3322,36.09185 9.4923,71.01118 9.497,79.71482 0,3.91001 -1.8915,5.78518 -5.8419,5.78518 -1.6693,0 -2.1367,-1.04588 -3.016,-6.75 z m -28.0012,-24.58264 c -1.4632,-1.76305 -3.2249,-10.85408 -6.524,-33.66736 -7.5812,-52.42264 -9.7954,-72.27994 -8.4617,-75.88526 0.8331,-2.2521 4.6145,-3.74699 5.9925,-2.369 0.5194,0.51942 1.4005,4.05162 1.9579,7.84933 0.5574,3.79771 1.8711,12.07993 2.9193,18.40493 1.0482,6.325 3.5028,24.325 5.4547,40 1.9518,15.675 3.9727,30.75 4.4908,33.5 0.5181,2.75 1.0747,6.8 1.2368,9 0.2809,3.81191 0.1497,4.01416 -2.7904,4.30107 -1.7883,0.17451 -3.5857,-0.30205 -4.2759,-1.13371 z M 276.46903,623.71354 c 19.53135,-3.73697 33.55169,-14.71781 46.83137,-36.67869 7.42039,-12.27124 20.30503,-22.84495 40.09004,-32.89966 l 9,-4.57379 -3.50206,-3.5473 -3.50205,-3.54731 -4.4802,3.43935 c -6.82175,5.2369 -26.88603,14.29108 -31.66936,14.29108 -2.67989,0 -9.11897,-7.10197 -11.74552,-12.9547 -1.47559,-3.28806 -3.41176,-9.33697 -4.30259,-13.44202 -1.4704,-6.77579 -1.47572,-7.68344 -0.0577,-9.84761 3.09833,-4.72866 17.88177,-10.29901 35.10877,-13.22888 3.8165,-0.64909 3.84342,-0.68601 3.15922,-4.33311 -0.37955,-2.02315 -0.90079,-4.01937 -1.15832,-4.43606 -0.90695,-1.46749 -7.35742,-0.72628 -19.51455,2.24238 -18.95146,4.62778 -25.81756,4.04458 -48.33564,-4.10558 -8.04525,-2.91188 -10.11389,-3.25418 -19.5,-3.22669 -8.58446,0.0251 -11.79565,0.48668 -17.60205,2.52985 -14.09623,4.96024 -26.55245,16.06834 -32.97632,29.40735 -5.46973,11.35775 -4.36622,14.03514 3.45079,8.37253 13.58309,-9.83954 35.35724,-13.85664 48.48489,-8.94496 12.02231,4.49812 17.47206,11.09302 20.24432,24.49824 2.30958,11.16798 1.60465,27.34596 -1.46815,33.69352 -2.92099,6.03395 -9.76177,12.23995 -17.45387,15.83426 -5.29211,2.47286 -20.74694,7.30813 -29.92961,9.36392 -1.5125,0.33862 -2.75,0.97684 -2.75,1.41828 0,1.10502 13.7014,8.71888 18,10.00259 8.18402,2.44404 15.33841,2.63228 25.57859,0.67301 z m 63.7706,-77.97547 c 7.15914,-2.52633 16.68433,-7.82269 19.3421,-10.7549 1.41074,-1.55643 1.33758,-2.32598 -0.79557,-8.36839 -1.29204,-3.65988 -2.93381,-6.87868 -3.64836,-7.15288 -3.38547,-1.29912 -33.24736,8.13877 -33.24736,10.50789 0,0.77255 3.23718,9.3764 6.01148,15.97743 1.21458,2.8899 3.67376,2.84821 12.33771,-0.20915 z m 61.67554,-6.79085 c 2.60088,-1.31549 5.70009,-4.05096 7.46189,-6.58614 2.8917,-4.16106 3.01338,-4.76673 3.01338,-15 0,-5.86512 -0.55515,-13.13886 -1.23366,-16.16386 -0.6785,-3.025 -2.84668,-12.7 -4.81816,-21.5 -10.07366,-44.96522 -15.82186,-64.24 -20.94166,-70.22135 -8.82532,-10.31039 -22.80885,-9.10675 -34.92149,3.00588 -6.19424,6.19424 -9.11425,11.50266 -13.44239,24.43751 -4.67513,13.97187 -7.13825,24.48296 -8.71416,37.18667 -2.21564,17.86066 -2.70713,16.49733 5.66686,15.71905 8.26361,-0.76802 10.90466,-1.91402 10.90466,-4.73172 0,-1.11848 -1.10131,-6.39015 -2.44735,-11.71482 -3.14581,-12.44418 -4.72464,-24.99135 -3.44545,-27.38153 1.75626,-3.28159 4.60166,-2.15938 6.21285,2.45031 2.3236,6.64794 6.96479,19.152 11.97039,32.25 2.52228,6.6 7.32656,19.35957 10.67617,28.3546 7.06126,18.96228 7.96518,20.85919 12.28349,25.77748 5.84164,6.65325 13.79004,8.15642 21.77463,4.11792 z M 380.64044,510.6419 c -1.50224,-1.55834 -0.69508,-4.512 1.5,-5.48901 4.09244,-1.8215 23.21751,-6.54394 25,-6.1731 0.9625,0.20024 1.75,1.00609 1.75,1.79076 0,0.78467 0.5051,1.42667 1.12244,1.42667 2.67187,0 -1.62657,2.98914 -7.92365,5.51011 -6.69063,2.67853 -19.94719,4.49226 -21.44879,2.93457 z m 75.19252,20.49605 c 5.8392,-2.64891 12.6916,-8.33246 14.6784,-12.17461 1.2713,-2.45845 1.4557,-4.79707 0.92,-11.67034 -1.3353,-17.13197 -7.6779,-65.7523 -12.1446,-93.09578 -4.195,-25.6802 -6.0401,-30.53031 -13.2205,-34.75133 -4.1696,-2.45106 -5.6503,-2.74767 -13.67582,-2.73946 -7.85327,0.008 -9.66096,0.35653 -14.18743,2.73514 -10.22943,5.37544 -15.77561,13.44221 -15.64529,22.75565 0.0488,3.48608 4.85976,24.72385 13.13871,58 7.18396,28.875 13.57405,55.425 14.20021,59 1.35986,7.76411 3.06865,10.69194 7.31922,12.54087 4.7019,2.04519 13.4043,1.76466 18.6171,-0.60014 z m -21.19252,-30.50478 c -0.4125,-0.4231 -0.75,-1.54124 -0.75,-2.48476 0,-1.28385 2.20152,-2.39599 8.75002,-4.42021 4.8125,-1.4876 11.5881,-4.09002 15.0569,-5.78316 l 6.3069,-3.07842 2.0096,2.00956 2.0095,2.00957 -2.6123,3.10464 c -4.3353,5.15212 -12.5256,8.51466 -21.9124,8.99615 -4.4595,0.22875 -8.44572,0.0697 -8.85822,-0.35337 z m 74.82532,17.44076 c 3.3036,-0.83185 5.5749,-2.36214 8.7541,-5.89817 4.8975,-5.44728 6.6706,-10.30426 6.6706,-18.27313 0,-9.1465 -3.5748,-11.16963 -17.9826,-10.17704 -11.2574,0.77554 -15.0174,-0.21723 -15.0174,-3.96507 0,-2.08967 0.6778,-2.65766 4.25,-3.56115 8.257,-2.08844 8.3269,-2.16301 5.3487,-5.7025 -5.8696,-6.97554 -6.8076,-13.852 -4.0445,-29.64853 1.9218,-10.98709 4.7171,-18.61796 7.9233,-21.63004 1.3514,-1.26959 5.9574,-3.31792 10.2355,-4.55186 l 7.7784,-2.24352 0.8198,-4.36285 c 1.2718,-6.76848 0.074,-30.51768 -1.859,-36.86285 -2.1987,-7.21678 -4.5771,-10.40102 -10.2676,-13.74614 -4.1748,-2.45414 -5.6641,-2.75386 -13.6846,-2.75386 -8.1071,0 -9.5314,0.29432 -14.3556,2.96638 -2.9455,1.63151 -6.6672,4.55651 -8.2703,6.5 -3.8891,4.71486 -6.8741,12.9823 -6.8741,19.03881 0,2.71159 2.8848,24.18221 6.4107,47.71249 3.5259,23.53028 7.3804,49.98232 8.5656,58.78232 2.8108,20.87069 4.6925,24.48509 14.5815,28.00788 4.882,1.73912 5.4942,1.75962 11.0175,0.36883 z m 47.5618,-14.95011 c 1.7936,-0.95987 5.8501,-6.53839 5.8591,-8.05732 0,-0.34689 -4.1587,-0.88036 -9.2462,-1.18548 -5.0875,-0.30513 -10.375,-0.83562 -11.75,-1.17888 l -2.5,-0.62411 -0.1291,7.90412 -0.129,7.90413 7.9627,-1.85411 c 4.3795,-1.01977 8.8491,-2.32852 9.9325,-2.90835 z m 167.3629,-12.55062 c 3.3,-0.82919 9.825,-3.34174 14.5,-5.58344 11.495,-5.51198 22.3138,-16.16096 26.4696,-26.05422 1.5622,-3.71893 2.5556,-7.04639 2.2076,-7.39437 -0.3479,-0.34798 -2.5552,0.0946 -4.9049,0.98354 -8.6939,3.28895 -34.4952,9.73551 -41.3204,10.32407 -10.2111,0.88054 -16.8961,-1.27399 -22.9241,-7.38834 -12.7596,-12.94249 -19.4014,-32.64014 -17.9597,-53.26322 0.3653,-5.225 1.3089,-11.075 2.0969,-13 3.988,-9.74265 15.1197,-16.05502 36.835,-20.88773 17.6607,-3.93036 21.5,-5.00485 21.5,-6.01714 0,-0.80872 -8.8096,-6.49136 -14.5,-9.35328 -10.7606,-5.41188 -32.1595,-7.43959 -44.571,-4.22345 -17.1578,4.44601 -26.8013,13.06227 -37.3739,33.39242 -8.4902,16.32608 -13.9337,22.63939 -23.7579,27.55423 -3.8863,1.94422 -7.6805,3.53495 -8.4316,3.53495 -2.7946,0 -1.2263,1.7815 2.9838,3.38936 11.1864,4.2721 18.4817,14.45399 25.1146,35.05163 2.55,7.91856 5.1762,14.84391 5.8361,15.38966 0.6599,0.54575 3.6297,1.91445 6.5994,3.04157 2.9698,1.12711 10.7284,5.23566 17.2414,9.1301 22.5699,13.49571 35.3073,16.16078 54.3591,11.37366 z m -179.478,-44.38774 c 2.5164,-1.34677 3.9656,-6.96044 3.9724,-15.38805 l 0.01,-6.89981 -11.1378,0.58757 c -6.1257,0.32316 -11.5835,1.03335 -12.1284,1.5782 -0.5448,0.54486 -1.219,4.18237 -1.4981,8.08336 -0.5411,7.56247 0.6051,10.19818 5.2643,12.10514 2.866,1.17302 13.2894,1.12842 15.522,-0.0664 z m 46.767,-48.23375 c 0.5403,-22.90492 -1.9432,-33.4388 -9.3163,-39.51633 -9.209,-7.59088 -25.5742,-6.97893 -35.2682,1.31879 -6.922,5.92494 -7.9058,9.36487 -8.6451,30.22663 -0.3564,10.05597 -0.8981,18.93539 -1.2038,19.73205 -0.4797,1.24996 3.1927,1.38303 26.7943,0.97091 l 27.3501,-0.47756 z m 233.4287,11.77524 c -1.7305,-1.4561 -6.8211,-8.7955 -11.3125,-16.30976 -6.9948,-11.7027 -16.3915,-25.84329 -24.118,-36.29393 -1.1311,-1.52992 -1.7861,-3.48657 -1.4555,-4.34813 0.9646,-2.51377 6.8636,-5.57011 10.7585,-5.57417 5.3076,-0.006 13.8293,-4.72045 28.4098,-15.71868 7.15,-5.39334 18.2444,-13.51884 24.6542,-18.05667 16.9284,-11.98452 21.8458,-16.63631 21.8458,-20.66607 0,-3.96945 2.9566,-7.02825 5.8927,-6.09637 4.0473,1.28455 14.0277,14.43025 32.672,43.03405 5.736,8.8 10.4305,16.72592 10.4322,17.61316 0,2.21341 -9.2233,10.66563 -13.6742,12.52538 -3.3732,1.40938 -3.8193,1.38119 -6.1936,-0.39142 -1.6618,-1.24077 -3.1677,-3.98439 -4.2969,-7.82867 -2.1311,-7.25571 -12.8378,-29.0734 -14.6456,-29.84426 -1.7197,-0.7333 -5.9001,1.45745 -15.6866,8.22049 -10.3962,7.18432 -9.9844,6.71933 -7.85,8.86568 1.0175,1.0232 5.1616,7.14187 9.2091,13.59705 5.4675,8.71975 7.2088,12.3158 6.7741,13.98963 -0.3405,1.31136 -3.0782,3.85037 -6.5505,6.07505 -6.9371,4.44467 -10.8429,4.65371 -12.6661,0.67791 -11.1207,-24.25048 -12.2079,-25.37935 -19.6934,-20.44827 -10.3125,6.79331 -14.7232,10.56523 -14.7232,12.59094 0,2.10281 7.2583,14.79621 12.9254,22.60404 1.8329,2.52522 4.9049,5.10341 7.5785,6.36012 3.8139,1.79278 4.4961,2.55494 4.4961,5.02347 0,2.50289 -0.9721,3.53887 -6.9476,7.40438 -9.1281,5.90499 -11.7803,6.40663 -15.8347,2.99505 z m -632.5757,-1.77973 c -0.77225,-1.2375 -1.68459,-3.46119 -2.02743,-4.94153 -0.61666,-2.66266 -10.6764,-10.26112 -50.11459,-37.85325 -6.6,-4.61755 -15.52647,-10.99647 -19.8366,-14.17538 -6.97591,-5.14504 -8.36278,-5.77984 -12.62755,-5.77984 -8.786777,0 -9.014787,-3.37857 -1.03336,-15.31179 6.69163,-10.00483 10.25541,-13.68821 13.24373,-13.68821 2.9496,0 5.75378,2.84787 5.75378,5.84343 0,1.20227 1.4625,3.73412 3.25,5.62635 4.06219,4.30017 26.38289,20.53022 28.2346,20.53022 0.75274,0 2.82891,-2.5875 4.61372,-5.75 1.78481,-3.1625 5.47821,-8.98065 8.20754,-12.92922 2.78482,-4.02883 4.71676,-7.81944 4.40258,-8.63817 -0.67398,-1.75637 -15.93857,-14.62682 -22.91892,-19.32424 -3.81106,-2.56466 -6.04581,-3.35837 -9.45575,-3.35837 -9.69271,0 -10.26242,-2.82572 -2.82524,-14.01284 7.15506,-10.76274 12.22597,-15.98716 15.51744,-15.98716 3.26475,0 3.89926,0.74197 5.97403,6.98585 1.32425,3.98524 3.43324,6.1328 18,18.32907 18.26062,15.28904 44.64039,35.41652 50.61504,38.61874 2.35766,1.26364 5.71464,2.06634 8.64159,2.06634 4.12512,0 4.94239,0.3427 5.91665,2.48097 0.95058,2.08631 0.71269,3.2861 -1.49543,7.54216 -2.58693,4.9862 -11.08959,16.77846 -13.13121,18.21156 -3.50072,2.45731 -7.48204,-0.20283 -9.43905,-6.30678 -1.49558,-4.66472 -5.2699,-8.11567 -18.50953,-16.9237 l -10.90194,-7.25281 -1.86527,2.3743 c -4.408,5.61096 -13.83085,21.45372 -13.83085,23.254 0,2.18096 3.21203,5.2182 16.49191,15.59446 5.16853,4.03844 9.96571,7.02584 11.28212,7.02584 3.77157,0 9.21578,2.73867 9.34112,4.69898 0.25022,3.91339 -0.40912,6.05248 -3.79158,12.30102 -5.51441,10.18698 -7.9707,13 -11.35141,13 -1.95174,0 -3.39359,-0.7492 -4.33014,-2.25 z m 51.55822,-80.00872 c -0.57456,-0.6923 -1.75726,-4.33146 -2.62824,-8.08703 -0.87097,-3.75557 -4.98861,-15.41822 -9.1503,-25.917 -4.16169,-10.49878 -10.47152,-26.77212 -14.02185,-36.16297 -11.13514,-29.45318 -11.11905,-29.42158 -15.59522,-30.62688 -5.03137,-1.35481 -6.82919,-4.73479 -4.4499,-8.36603 2.56701,-3.91777 26.6508,-22.58137 29.13932,-22.58137 2.75019,0 5.50595,2.95022 5.50595,5.89448 0,3.8922 1.8541,5.98213 11.80096,13.30201 5.33447,3.92562 19.96141,15.04984 32.50432,24.7205 29.88867,23.04435 34.33832,26.08301 38.19456,26.08301 3.56192,0 7.50016,3.13707 7.50016,5.97438 0,3.11096 -21.32569,21.02562 -25.02899,21.02562 -2.79161,0 -4.62367,-2.42639 -5.37373,-7.117 -0.52495,-3.28283 -1.79632,-5.36775 -5.58126,-9.15268 -5.90875,-5.90876 -6.69983,-5.81467 -16.01602,1.90501 -14.00944,11.60862 -15.31231,12.98558 -14.67393,15.5083 1.02814,4.06297 5.67652,10.22385 10.32376,13.68293 6.48568,4.82749 5.85766,6.3119 -6.10224,14.42344 -9.91476,6.72448 -14.14467,8.14535 -16.34735,5.49128 z m 11.43975,-58.08841 c 3.223,-2.39092 6.72427,-5.32368 7.78059,-6.51723 1.90767,-2.15551 1.90095,-2.19084 -1,-5.25608 -3.84157,-4.05913 -30.31939,-24.87956 -31.6399,-24.87956 -0.65695,0 -0.62525,0.48236 0.0882,1.34201 0.61257,0.73811 0.87837,1.57741 0.59066,1.86511 -0.2877,0.28771 1.01585,4.2963 2.89678,8.90799 3.28492,8.054 4.28719,10.3654 10.03173,23.13489 1.4227,3.1625 3.2179,5.75 3.98933,5.75 0.77143,0 4.0396,-1.95621 7.26261,-4.34713 z m 522.58533,56.22521 c -3.8787,-0.4712 -9.1366,-2.1388 -13.7696,-4.36716 -13.8211,-6.6477 -41.4557,-29.29698 -41.4557,-33.97706 0,-3.14153 2.7389,-5.24323 8.5161,-6.5347 2.8606,-0.63949 6.2032,-2.2612 7.846,-3.80665 5.945,-5.59267 43.2401,-50.50933 48.1363,-57.97333 2.3234,-3.54182 2.7766,-5.24437 2.6257,-9.86246 -0.1003,-3.0699 0.3358,-6.20603 0.9692,-6.96918 1.3949,-1.68069 6.2299,-1.80984 9.2224,-0.24633 3.7962,1.98336 18.0801,14.50413 25.9814,22.77432 11.593,12.13431 15.7029,22.0538 15.7029,37.90023 0,17.21738 -6.3684,31.63716 -19.9633,45.2022 -14.1041,14.07311 -28.0814,19.77109 -43.8114,17.86012 z m 8.7747,-23.08225 c 12.9857,-3.80128 28.3864,-21.65648 33.4036,-38.72733 2.0872,-7.10157 1.9879,-12.60967 -0.3191,-17.68976 -2.185,-4.81162 -10.0487,-13.37874 -12.2802,-13.37874 -0.8462,0 -2.6609,1.6875 -4.0326,3.75 -1.3718,2.0625 -11.3766,14.55 -22.233,27.75 -10.8563,13.2 -20.2177,25.01635 -20.8032,26.25855 -1.5181,3.22131 0.6825,6.8161 6.1251,10.00568 6.9939,4.09867 11.5187,4.55512 20.1394,2.0316 z m -76.5,-20.96242 c -1.65,-0.48035 -7.5,-3.22687 -13,-6.10338 -12.269,-6.41669 -12.9181,-7.96065 -6.1098,-14.53189 2.7303,-2.63517 5.0678,-6.09423 6.0334,-8.92814 2.0556,-6.0327 2.0009,-6.78984 -0.6736,-9.32408 -2.8015,-2.65458 -23.0752,-12.94592 -25.5031,-12.94592 -2.3036,0 -9.5108,9.07683 -10.5373,13.27075 -1.7432,7.12178 -2.8127,8.72925 -5.8081,8.72925 -6.5489,0 -23.1636,-8.07028 -24.1165,-11.71413 -0.7706,-2.94688 0.8627,-6.05236 4.0503,-7.70073 1.6162,-0.83578 11.877,-10.8495 22.8016,-22.25272 10.9247,-11.40322 25.6145,-26.73003 32.6441,-34.05958 15.2415,-15.89197 16.8963,-18.31146 16.0679,-23.49229 -0.7482,-4.6788 0.8092,-6.78075 5.0235,-6.77996 2.9648,5.5e-4 29.5449,13.93811 33.8776,17.76406 2.9824,2.6336 2.1204,5.69091 -2.7237,9.66027 -3.0204,2.47501 -4.7914,4.86927 -5.4518,7.37046 -1.472,5.5752 -9.805,44.7736 -11.0978,52.20462 -0.622,3.575 -2.4463,12.40777 -4.0538,19.62836 -1.6076,7.2206 -2.9229,15.68769 -2.9229,18.81575 0,8.77518 -2.7017,12.07732 -8.5,10.3893 z m -6.627,-57.08341 c 2.7787,-8.78327 8.0226,-35.485 7.8578,-40.01131 -0.054,-1.49594 -0.3374,-1.57127 -1.8776,-0.5 -2.989,2.07896 -23.8462,29.12769 -23.8499,30.92975 0,0.91765 1.4943,2.59401 3.3247,3.72527 1.8304,1.13125 5.3179,3.63859 7.75,5.57185 2.4321,1.93327 4.7246,3.5194 5.0944,3.52474 0.3699,0.005 1.1351,-1.4528 1.7006,-3.2403 z M 332.0156,265.84803 c -0.61585,-0.74205 -1.54361,-3.55455 -2.06169,-6.25 -1.47135,-7.65518 -20.8158,-54.11569 -30.14503,-72.40081 -8.13918,-15.95264 -8.5787,-16.58293 -13.24914,-19 -2.65689,-1.375 -5.23761,-3.23543 -5.73494,-4.13429 -1.53507,-2.77443 2.53685,-6.51616 12.44258,-11.43362 13.58462,-6.74376 12.6394,-7.10589 40.62306,15.56347 13.72721,11.12033 35.2067,26.00444 37.52738,26.00444 1.85484,0 1.88327,-0.95418 0.0712,-2.38975 -0.77077,-0.61064 -4.41798,-8.31025 -8.1049,-17.11025 -8.92542,-21.30332 -13.1452,-29.18573 -18.24369,-34.07858 -4.30081,-4.12734 -5.31385,-7.29361 -2.9589,-9.24805 2.07894,-1.72537 19.22123,-7.17337 22.57122,-7.17337 3.83631,0 5.13768,2.22338 5.13768,8.77771 0,6.26459 1.89001,11.58343 11.98302,33.72229 4.51337,9.9 9.99915,22.5 12.19062,28 2.19148,5.5 6.67899,15.52192 9.97224,22.27093 3.31173,6.78687 5.84615,13.26713 5.67092,14.5 -0.44047,3.09919 -8.67292,7.02358 -15.76234,7.51389 l -5.55446,0.38415 -8.5,-6.86881 c -4.675,-3.77785 -15.925,-12.50595 -25,-19.39578 -28.20471,-21.41331 -32.90159,-24.41188 -30.15543,-19.25176 0.54074,1.01606 1.96061,4.69971 3.15528,8.18588 2.46856,7.20356 14.89978,34.56664 18.52723,40.78138 1.41678,2.4273 3.85323,4.80724 5.93055,5.79299 4.66034,2.21148 5.63307,5.79723 2.48242,9.15094 -2.77234,2.95103 -16.07489,9.43619 -19.35577,9.43619 -1.28667,0 -2.84327,-0.60713 -3.45912,-1.34919 z m 271.87486,-29.56972 c -3.575,-0.95611 -7.5125,-2.28132 -8.75,-2.94492 -3.1587,-1.69381 -2.8485,-5.36046 0.7888,-9.32445 3.6299,-3.95588 6.2687,-12.28219 8.4182,-26.56172 1.3384,-8.89073 4.4284,-28.92985 4.8868,-31.69061 0.086,-0.51733 -0.5188,-1.07376 -1.3438,-1.2365 -1.6414,-0.32379 -20.22,21.73372 -30.373,36.0604 -4.4974,6.3463 -6.6842,8.61671 -8.2993,8.61671 -2.6922,0 -2.28,1.40835 -7.8199,-26.71669 -2.5152,-12.76919 -5.2723,-25.14419 -6.1269,-27.5 -0.8546,-2.35582 -1.6519,-4.83278 -1.7718,-5.50436 -0.4332,-2.42731 -1.6091,-2.5551 -1.6091,-0.17486 0,1.34058 -2.2529,11.65308 -5.0063,22.91666 -2.7535,11.26359 -5.5065,24.07925 -6.1177,28.47925 -1.0145,7.30199 -0.9345,8.38448 0.9161,12.40659 3.9285,8.53791 0.2509,11.48889 -13.2921,10.66593 -10.9521,-0.66551 -14.4149,-1.55861 -16.1448,-4.16398 -1.1358,-1.71061 -1.0382,-2.48978 0.6831,-5.45218 4.3496,-7.48607 6.0752,-12.25738 9.9315,-27.46086 10.3656,-40.86685 14.3046,-66.57712 11.6056,-75.75124 -1.4225,-4.83503 0.4103,-5.74425 11.5791,-5.74425 14.1178,0 19.8455,2.9986 19.8455,10.38966 0,1.61957 1.3318,7.93194 2.9596,14.0275 1.6278,6.09556 3.9022,15.35783 5.0542,20.58283 2.0179,9.15282 4.0643,14 5.9104,14 0.483,0 1.8397,-1.62967 3.015,-3.62149 1.1752,-1.99183 9.4296,-12.58585 18.3431,-23.54227 10.731,-13.19059 17.0361,-20.12904 18.6624,-20.5372 2.9781,-0.74746 11.9769,1.02211 20.3667,4.00502 5.4402,1.93421 6.2282,2.54637 6.516,5.06253 0.2261,1.97569 -0.4355,3.67862 -2.1358,5.49784 -4.2337,4.52979 -5.5603,8.45479 -8.7192,25.79794 -1.6867,9.2607 -4.8262,25.61263 -6.9766,36.33763 -2.1503,10.725 -4.5753,24.59415 -5.3887,30.82033 -0.8134,6.22619 -2.0129,11.96369 -2.6655,12.75 -1.5857,1.91064 -8.7408,1.70402 -16.9416,-0.48924 z m 6,-74.08109 c 0,-0.55 -0.45,-1 -1,-1 -0.55,0 -1,0.45 -1,1 0,0.55 0.45,1 1,1 0.55,0 1,-0.45 1,-1 z m -186.74331,66.75 c -2.00307,-2.53381 -1.92338,-4.35238 0.38305,-8.74204 3.09663,-5.89356 3.0211,-10.05374 -0.56699,-31.23109 -1.60998,-9.50228 -4.35306,-26.49502 -6.09574,-37.76165 -1.74267,-11.26664 -3.75518,-21.61664 -4.47223,-23 -0.71706,-1.38337 -2.69898,-3.75619 -4.40427,-5.27293 -6.6367,-5.9029 -3.14576,-9.07091 13.12872,-11.91426 13.93504,-2.43461 30.91497,-2.59248 39.17857,-0.36425 14.0061,3.77669 27.2614,14.01749 33.7805,26.09833 4.1581,7.70556 7.8363,21.75118 8.4947,32.43789 1.1556,18.75502 -3.6748,33.22208 -14.3501,42.97866 -8.994,8.22004 -16.8119,11.25156 -40.116,15.55567 -14.73224,2.72095 -23.43514,3.14482 -24.96021,1.21567 z m 41.42391,-25.2353 c 5.6815,-2.56684 10.5431,-8.22713 12.3701,-14.4023 3.1868,-10.77163 1.8688,-28.33611 -3.122,-41.60503 -4.51,-11.99062 -16.3383,-20.5373 -28.3602,-20.49205 -6.2643,0.0236 -6.6471,0.58079 -5.51,8.02178 3.5236,23.05962 8.9415,63.50685 8.9415,66.7531 0,2.13206 0.3346,4.21112 0.7436,4.62014 1.2065,1.20641 9.353,-0.37286 14.937,-2.89564 z"
     id="path101" /></svg>
