<?xml version="1.0" encoding="UTF-8" standalone="no"?>
<!-- Created with Inkscape (http://www.inkscape.org/) -->

<svg
   version="1.1"
   id="svg1"
   width="926.99304"
   height="1007.4496"
   viewBox="0 0 926.99308 1007.4496"
   sodipodi:docname="handmadeIcon.jpg"
   inkscape:version="0.0"
   xmlns:inkscape="http://www.inkscape.org/namespaces/inkscape"
   xmlns:sodipodi="http://sodipodi.sourceforge.net/DTD/sodipodi-0.dtd"
   xmlns="http://www.w3.org/2000/svg"
   xmlns:svg="http://www.w3.org/2000/svg">
  <defs
     id="defs1" />
  <sodipodi:namedview
     id="namedview1"
     pagecolor="#ffffff"
     bordercolor="#000000"
     borderopacity="0.25"
     inkscape:showpageshadow="2"
     inkscape:pageopacity="0.0"
     inkscape:pagecheckerboard="0"
     inkscape:deskcolor="#d1d1d1"
     inkscape:zoom="0.45813386"
     inkscape:cx="1071.7392"
     inkscape:cy="348.15152"
     inkscape:window-width="2560"
     inkscape:window-height="1440"
     inkscape:window-x="0"
     inkscape:window-y="0"
     inkscape:window-maximized="0"
     inkscape:current-layer="g1">
    <inkscape:page
       x="0"
       y="0"
       width="926.9931"
       height="1007.4496"
       id="page2"
       margin="0"
       bleed="0" />
  </sodipodi:namedview>
  <g
     inkscape:groupmode="layer"
     inkscape:label="Image"
     id="g1"
     transform="translate(-203.17013,-216.27522)">
    <path
       style="fill:#ffffff"
       d="m 513.78825,1220.7238 c -8.0763,-12.905 -75.5126,-130.9303 -75.4958,-132.1309 0.012,-0.8447 17.3653,-31.5358 38.5632,-68.2025 l 38.5416,-66.66666 h 78.4167 78.4167 l 38.8938,67.33336 38.8938,67.3333 -4.207,7.4584 c -2.3138,4.1021 -19.807,34.5416 -38.8736,67.6432 l -34.6667,60.1848 -78.3026,0.024 -78.3026,0.024 z m 94.7796,-57.7704 c 28.1065,-5.8055 50.1491,-26.3648 58.4997,-54.563 3.1512,-10.6407 3.1518,-29.3557 10e-4,-40 -7.6578,-25.8731 -28.6826,-46.5777 -54.1917,-53.3662 -9.4679,-2.5196 -28.0065,-2.4983 -37.7648,0.043 -25.1883,6.5607 -45.8383,25.9628 -53.5227,50.2883 -3.905,12.3617 -4.4855,30.5311 -1.3516,42.3074 7.2783,27.3492 30.3591,49.3486 58.0329,55.3137 11.5706,2.494 18.1331,2.4889 30.2968,-0.024 z m -330.2009,-17.3003 c -9.4417,-2.0476 -24.9095,-8.9422 -33.8289,-15.0789 -34.3224,-23.6144 -49.6461,-69.2265 -36.9017,-109.8406 6.9864,-22.26437 25.6145,-44.60536 46.1614,-55.36197 9.3874,-4.91445 27.814,-10.98123 33.3532,-10.98123 1.4769,0 1.7867,16.75819 1.7867,96.6667 0,53.1667 -0.45,96.619 -1,96.5607 -0.55,-0.058 -4.8568,-0.9424 -9.5707,-1.9647 z m 33.2374,-94.596 c 0,-79.90851 0.3097,-96.6667 1.7867,-96.6667 4.3923,0 22.6125,5.4901 29.0854,8.764 21.7964,11.0243 36.8837,26.56636 46.608,48.0128 10.3713,22.8734 10.8333,52.0824 1.21,76.497 -5.9387,15.0666 -21.4199,34.2226 -35.2014,43.557 -10.4004,7.0444 -34.3151,16.3218 -42.4887,16.4829 -0.55,0.011 -1,-43.4803 -1,-96.647 z m 712.20495,91.2653 c -12.2361,-1.6366 -28.11605,-7.2915 -37.79475,-13.4587 -6.1853,-3.9413 -80.591,-77.5105 -281.2467,-278.08477 l -272.8365,-272.72568 -12.4968,2.42455 c -18.3437,3.5589 -50.6188,3.29989 -68.7481,-0.55171 -35.3552,-7.51122 -64.9385,-22.84089 -89.927,-46.59892 -33.7465,-32.08479 -52.9848,-72.07509 -57.0703,-118.63091 -1.6174,-18.43191 0.71,-48.23666 4.6997,-60.18362 0.3989,-1.19436 15.7773,13.12192 42.2546,39.33618 44.9922,44.54521 49.5758,48.15432 69.6275,54.825 9.359,3.11348 12.7917,3.54851 28,3.54851 15.1823,0 18.6571,-0.43874 28,-3.53536 34.6967,-11.49988 58.2947,-40.16268 63.3273,-76.91916 2.575,-18.80669 -2.1141,-41.22714 -12.2329,-58.49021 -2.9729,-5.07185 -18.1469,-21.40367 -46.1812,-49.70492 l -41.7535,-42.15106 12.4202,-2.51561 c 17.1465,-3.4729 54.2456,-3.51521 70.4201,-0.0803 38.4328,8.16175 70.4038,25.77689 97.0208,53.45591 24.7456,25.73292 39.9934,54.47332 47.8344,90.16279 3.1658,14.40947 3.3038,59.8719 0.2204,72.61268 l -1.9361,8 271.5859,272 c 149.3722,149.6 273.49705,274.85352 275.83305,278.34115 6.8594,10.24146 13.3093,25.01886 15.5846,35.70576 4.3817,20.5813 0.3139,47.7631 -9.7702,65.2864 -19.2998,33.5377 -57.6258,52.9087 -94.8345,47.932 z m 25.6021,-58.641 c 8.2313,-3.0797 17.9873,-12.4819 21.6035,-20.8198 3.3495,-7.7231 3.0449,-22.2672 -0.6281,-29.9956 -6.0978,-12.83 -17.8079,-21.05 -31.5605,-22.1539 -22.383,-1.7967 -40.52935,15.0731 -40.52935,37.6783 0,11.9327 3.87345,20.671 12.54735,28.306 10.9908,9.6745 24.7287,12.1626 38.5671,6.985 z m -675.14045,-165.17473 -50,-29.04326 -0.3215,-59.86984 -0.3215,-59.86983 51.4078,-29.6492 51.4078,-29.6492 51.5804,29.78815 51.5803,29.78815 0.347,59.35901 0.3469,59.35902 -16.3469,9.34398 c -8.9908,5.13918 -32.086,18.4151 -51.3225,29.50203 -19.2366,11.08693 -35.7366,20.11895 -36.6667,20.07116 -0.9301,-0.0478 -24.1911,-13.15637 -51.6911,-29.13017 z m 73.7031,-42.44825 c 39.2032,-18.34538 39.9372,-73.58769 1.2308,-92.62725 -8.3395,-4.10218 -9.7639,-4.3741 -22.9131,-4.3741 -12.8153,0 -14.7071,0.33698 -22.0038,3.91949 -31.6474,15.53828 -39.1677,56.77064 -14.9291,81.8536 11.2182,11.60895 23.4149,16.45994 39.6809,15.78223 7.9242,-0.33015 12.0062,-1.31193 18.9343,-4.55397 z"
       id="path1"
       sodipodi:nodetypes="csscccccsscccccscsssssccsssssscsssssssssssscsssssssssssscssssscsssssssssssssscccccccccsssssssssss" />
  </g>
</svg>
