<?xml version="1.0" encoding="UTF-8" standalone="no"?>
<!-- Created with Inkscape (http://www.inkscape.org/) -->

<svg
   version="1.1"
   id="svg1"
   width="385.62933"
   height="388.08167"
   viewBox="0 0 385.62933 388.08167"
   sodipodi:docname="icon-for-reliable-15.jpg"
   inkscape:version="0.0"
   xmlns:inkscape="http://www.inkscape.org/namespaces/inkscape"
   xmlns:sodipodi="http://sodipodi.sourceforge.net/DTD/sodipodi-0.dtd"
   xmlns="http://www.w3.org/2000/svg"
   xmlns:svg="http://www.w3.org/2000/svg">
  <defs
     id="defs1" />
  <sodipodi:namedview
     id="namedview1"
     pagecolor="#4a4a4a"
     bordercolor="#000000"
     borderopacity="0.25"
     inkscape:showpageshadow="2"
     inkscape:pageopacity="0.0"
     inkscape:pagecheckerboard="0"
     inkscape:deskcolor="#d1d1d1"
     inkscape:zoom="1.542655"
     inkscape:cx="351.34232"
     inkscape:cy="330.27475"
     inkscape:window-width="2560"
     inkscape:window-height="1440"
     inkscape:window-x="0"
     inkscape:window-y="0"
     inkscape:window-maximized="0"
     inkscape:current-layer="g1">
    <inkscape:page
       x="0"
       y="0"
       width="385.62933"
       height="388.08167"
       id="page2"
       margin="0"
       bleed="0" />
  </sodipodi:namedview>
  <g
     inkscape:groupmode="layer"
     inkscape:label="Image"
     id="g1"
     transform="translate(-63.18533,-61.959159)">
    <path
       style="fill:#f9f9f9"
       d="M 208.67039,446.50706 C 139.47454,419.42577 87.230995,359.81356 69.753905,287.99719 c -5.98189,-24.58062 -5.98061,-24.55838 -6.39048,-111.60496 -0.41393,-87.912605 -0.61358,-84.715835 5.44355,-87.163145 1.53844,-0.62159 36.097165,-7.01161 76.797165,-14.200043 l 74,-13.069884 75.48995,13.287677 c 71.47841,12.58157 75.6499,13.43055 78.5,15.97636 l 3.01005,2.68868 0.5,47.009195 0.5,47.00918 9.28924,4.64959 c 68.22315,34.14805 83.14218,124.98385 29.33091,178.58404 -17.53359,17.46481 -39.25615,28.48461 -62.99081,31.95508 -10.62065,1.55294 -31.34503,0.75016 -40.68045,-1.5758 l -7.05111,-1.75682 -10.44889,8.75728 c -13.21888,11.07884 -28.01955,20.8913 -42.84795,28.40708 -13.43502,6.80955 -29.08536,13.14329 -32.34426,13.08981 -1.24117,-0.0204 -6.27687,-1.61042 -11.19043,-3.53345 z m 24.69173,-23.00976 c 5.3669,-2.37187 13.9169,-6.7638 19,-9.75985 12.94365,-7.62915 32.74393,-22.07897 31.61759,-23.07383 -0.20656,-0.18245 -1.81104,-1.06153 -3.5655,-1.95352 -1.75446,-0.89199 -6.1662,-3.87452 -9.80386,-6.62786 l -6.61393,-5.00607 -5.9913,4.06861 c -7.14914,4.85489 -22.98281,12.84226 -31.57402,15.92766 -6.03147,2.16612 -6.2952,2.17745 -11.5,0.4942 -8.14727,-2.63485 -24.41681,-10.70118 -33.32696,-16.52328 -31.65994,-20.68734 -54.79745,-51.22328 -65.89521,-86.96582 -6.94828,-22.3783 -6.87416,-21.41834 -7.31943,-94.79153 l -0.4023,-66.29153 3.30847,-3.24327 3.30847,-3.24328 53,-9.24233 53,-9.24233 52.83715,9.38702 c 49.86756,8.85944 52.98682,9.53657 55.5,12.04803 l 2.66285,2.66101 0.29969,24.47911 0.29968,24.4791 h 7.31074 c 4.02091,0 9.40403,0.28692 11.96248,0.63759 l 4.65173,0.63759 -0.26216,-37.87784 -0.26216,-37.87784 -67.81192,-11.957105 -67.81191,-11.95709 -68.18809,12.01122 -68.188085,12.011225 -0.29699,59.43612 c -0.30238,60.51292 0.56082,87.57964 3.28251,102.92715 7.23289,40.78608 25.359125,76.96586 54.013065,107.80949 13.10464,14.10608 34.51559,30.40376 52.99311,40.33751 11.79309,6.34012 25.6723,11.885 28.00831,11.1896 1.1,-0.32746 6.39109,-2.536 11.75798,-4.90786 z m 126.24202,-42.39296 c 14.61327,-3.73937 28.94089,-11.63585 39.87038,-21.97403 36.61157,-34.6308 38.76547,-91.58747 4.8443,-128.10034 -12.32595,-13.26769 -27.5099,-22.46277 -44.71468,-27.07826 -11.73197,-3.14732 -32.70292,-3.17195 -44.5,-0.0523 -25.07142,6.63001 -46.87496,23.88027 -58.367,46.1781 -14.24084,27.63125 -14.4288,56.31537 -0.55115,84.10987 13.18934,26.41598 38.60984,44.19603 70.41815,49.2531 6.32007,1.0048 25.15425,-0.32852 33,-2.33617 z m -42,-54.12575 c -4.43503,-2.5248 -34.53416,-33.47454 -35.55105,-36.55572 -2.27882,-6.90492 4.73628,-14.64509 11.69115,-12.89952 1.74857,0.43886 7.6972,5.51055 15.38252,13.11483 l 12.53137,12.39924 26.973,-27.04606 c 14.83516,-14.87533 28.18816,-27.69131 29.67335,-28.47994 7.1798,-3.81247 14.79966,0.67125 14.79966,8.70851 v 4.29623 l -33.26209,33.30495 c -28.65512,28.69205 -33.74518,33.37359 -36.75,33.80051 -1.91835,0.27255 -4.38791,-0.0168 -5.48791,-0.64303 z m -84.20059,44.97899 c 7.17388,-3.60385 15.70059,-8.98282 15.70059,-9.90453 0,-0.48383 -1.97061,-3.71375 -4.37914,-7.1776 -22.52792,-32.39879 -25.31201,-76.71264 -7.0867,-112.79791 13.29042,-26.31442 37.5526,-46.82703 66.36115,-56.10545 l 7.14561,-2.3014 -0.27046,-19.48174 -0.27046,-19.48175 -45.34045,-7.98699 -45.34045,-7.98698 -44.15955,7.73943 c -24.28775,4.2567 -44.98429,7.97631 -45.9923,8.26581 -1.75674,0.50454 -1.81385,2.93856 -1.37678,58.68272 0.38105,48.6006 0.72718,59.553 2.10658,66.65635 8.91269,45.89679 37.35226,83.1383 78.57198,102.88973 l 10.34529,4.95719 4.89225,-1.92834 c 2.69074,-1.06059 6.78252,-2.87794 9.09284,-4.03854 z"
       id="path1" />
  </g>
</svg>
