<?xml version="1.0" encoding="UTF-8" standalone="no"?>
<!-- Created with Inkscape (http://www.inkscape.org/) -->

<svg
   version="1.1"
   id="svg1"
   width="1259.6177"
   height="1346.1414"
   viewBox="0 0 1259.6177 1346.1414"
   sodipodi:docname="uniqueIcon.jpg"
   xmlns:inkscape="http://www.inkscape.org/namespaces/inkscape"
   xmlns:sodipodi="http://sodipodi.sourceforge.net/DTD/sodipodi-0.dtd"
   xmlns="http://www.w3.org/2000/svg"
   xmlns:svg="http://www.w3.org/2000/svg">
  <defs
     id="defs1" />
  <sodipodi:namedview
     id="namedview1"
     pagecolor="#ffffff"
     bordercolor="#000000"
     borderopacity="0.25"
     inkscape:showpageshadow="2"
     inkscape:pageopacity="0.0"
     inkscape:pagecheckerboard="0"
     inkscape:deskcolor="#d1d1d1">
    <inkscape:page
       x="0"
       y="0"
       width="1259.6177"
       height="1346.1414"
       id="page2"
       margin="0"
       bleed="0" />
  </sodipodi:namedview>
  <g
     inkscape:groupmode="layer"
     inkscape:label="Image"
     id="g1"
     transform="translate(-0.20801067,-0.19488964)">
    <path
       style="fill:#ffffff"
       d="m 568.66667,1330.8341 c -17.74572,-8.3957 -18.74929,-32.3769 -4.24576,-45.1111 2.66174,-2.3371 7.10593,-4.8786 9.87598,-5.6478 7.17581,-1.9928 106.51601,-1.901 112.50415,0.1039 11.87676,3.9765 18.94699,13.955 18.96565,26.7668 0.0139,9.5509 -5.22853,18.8595 -13.1472,23.3445 l -5.28616,2.9941 c -19.16736,5.9299 -55.43441,27.4655 -118.66666,-2.4504 z m -64.58956,-69.5929 c -12.16258,-2.4428 -21.35065,-13.8805 -21.38851,-26.6253 -0.0289,-9.7263 4.13634,-17.9669 11.75917,-23.2647 l 5.78111,-4.0179 127.55222,-0.369 c 142.56959,-0.4126 134.39201,-0.928 143.39572,9.038 12.1011,13.3945 8.26081,34.3149 -7.81835,42.5914 l -6.61773,3.4063 -123.37037,0.2154 c -67.99318,0.1187 -126.02897,-0.3186 -129.29326,-0.9742 z m -4.03727,-73.3913 c -10.96266,-4.3752 -17.38557,-14.0478 -17.35124,-26.1301 0.0262,-9.2181 3.46121,-16.1057 11.10149,-22.2597 l 5.12342,-4.1268 129.41513,-0.3529 129.41513,-0.3529 5.946,2.8784 c 15.22886,7.3721 19.32344,29.0804 7.93223,42.0542 -9.10368,10.3686 0.38532,9.7214 -141.622,9.6594 -79.97881,-0.035 -127.88061,-0.5397 -129.96016,-1.3696 z m -2.48234,-73.9879 c -9.34534,-4.657 -13.87756,-11.4226 -14.63118,-21.8413 -0.30785,-4.256 0.13842,-9.8535 0.99171,-12.439 2.03708,-6.1724 11.78829,-15.0408 18.53587,-16.8577 3.71518,-1.0004 43.78545,-1.3334 130.45418,-1.084 L 758,1062 l 5.58942,2.9877 c 11.1956,5.9843 17.07072,18.9003 13.95505,30.679 -1.95977,7.4088 -7.31034,14.5764 -13.68583,18.3333 -4.42818,2.6094 -7.25863,2.6744 -131.87827,3.0259 l -127.35297,0.3592 z m -313.54798,-21.3193 c -13.06713,-5.6666 -19.37678,-19.4589 -15.33488,-33.5205 2.18776,-7.6111 3.09561,-8.5762 89.76774,-95.42652 48.15669,-48.2557 89.37553,-88.873 91.59742,-90.26066 16.82913,-10.51047 38.45595,-1.1743 42.60078,18.3905 0.51177,2.41571 0.20773,7.51571 -0.67565,11.33334 -1.5793,6.82518 -3.10155,8.44151 -91.11887,96.75043 -61.10755,61.31001 -91.20516,90.60101 -94.84606,92.30401 -6.42054,3.0034 -15.63989,3.1834 -21.99048,0.4294 z M 1054,1092.0199 c -7.6787,-3.8076 -181.194,-177.66624 -183.94643,-184.31041 -4.00651,-9.67144 -1.81988,-22.83228 5.01007,-30.15438 7.84029,-8.40526 22.32349,-11.01392 32.31741,-5.82089 7.75324,4.02873 181.23825,178.13408 183.89875,184.55628 3.1632,7.6359 2.6031,15.6863 -1.6589,23.8448 -6.6444,12.7188 -22.9605,18.1625 -35.6209,11.8846 z m -560.18907,-47.9298 c -6.98049,-1.7124 -13.64645,-6.6679 -17.25715,-12.8291 -3.367,-5.7454 -3.4288,-6.3341 -3.80173,-36.21731 -0.31344,-25.11565 -0.85205,-32.33998 -3.10973,-41.71036 -8.4526,-35.08205 -25.06403,-66.55958 -49.87329,-94.50648 -29.80812,-33.57798 -44.6574,-54.73925 -60.50615,-86.22551 -33.84783,-67.24454 -40.22753,-136.90807 -19.18375,-209.47798 14.83173,-51.14752 47.07192,-104.41817 85.46798,-141.21925 76.91016,-73.7153 179.20438,-100.62153 280.731,-73.84008 82.17805,21.67754 154.32397,82.77586 194.36553,164.60264 41.80779,85.43612 42.53937,174.90834 2.10412,257.33333 -15.02849,30.63475 -30.54624,53.38897 -55.5386,81.43819 -26.07092,29.2597 -39.55609,50.86411 -49.71261,79.64393 -8.01911,22.72322 -9.9984,35.80845 -10.12206,66.91788 -0.11949,30.0585 -0.59371,32.4883 -7.58114,38.844 -16.31947,14.8442 -41.79388,6.9791 -46.36732,-14.3156 -2.28892,-10.6576 -1.96349,-47.32767 0.57104,-64.34585 7.7287,-51.89454 30.61041,-98.20757 69.91825,-141.51588 37.31825,-41.11625 60.19243,-84.29208 69.63157,-131.43212 2.57172,-12.84341 3.04153,-19.31539 2.99331,-41.23455 -0.0507,-23.06316 -0.46847,-27.95789 -3.6982,-43.33333 C 849.43573,489.2387 762.13643,406.44743 655.71922,394.75582 c -117.45305,-12.90408 -226.8824,64.03589 -262.95356,184.8831 -9.21328,30.86674 -11.64775,70.83076 -6.21352,102.00067 7.03927,40.37626 27.19928,83.32352 55.04679,117.26727 4.62059,5.63211 14.3213,17.03211 21.55713,25.33333 16.57975,19.02094 29.39146,38.26693 40.22481,60.42648 13.9237,28.48085 21.40244,54.28951 24.72758,85.33333 1.76363,16.46542 0.8579,48.061 -1.58684,55.3556 -4.56482,13.6204 -19.25667,22.0349 -32.71068,18.7345 z M 16.65523,680.19063 C 10.124212,677.21069 3.5063473,669.91763 1.318896,663.28959 -2.4524199,651.86239 3.7304311,636.81404 14.543045,631.10352 L 20.419423,628 H 148.27592 c 138.99489,0 131.206,-0.39949 139.5205,7.15596 12.34618,11.21907 10.52457,33.02534 -3.57753,42.82621 L 278.43778,682 150.21889,682.31466 C 28.453285,682.61348 21.730997,682.50658 16.65523,680.19063 Z m 964,-0.0106 c -19.48765,-8.85305 -22.12864,-35.24057 -4.75537,-47.51335 l 5.66237,-4 129.24737,-0.35285 c 117.3136,-0.32027 129.6448,-0.15199 133.5522,1.82263 11.1291,5.62412 16.1705,14.38222 15.3845,26.72624 -0.6592,10.3528 -5.5169,18.07032 -14.2893,22.70161 l -5.8764,3.10237 -126.7903,-0.0293 c -119.75606,-0.0276 -127.08682,-0.16399 -132.13507,-2.45736 z M 355.33333,392.55271 C 348.46724,388.8548 174.71431,214.67887 171.89387,208.66667 c -4.79482,-10.2209 -2.20995,-25.07604 5.6151,-32.2697 7.81941,-7.18847 21.40803,-9.12527 31.07006,-4.42844 3.61505,1.75731 34.60548,31.85065 93.02624,90.33333 92.38305,92.48098 92.96731,93.14105 93.03211,105.10301 0.0419,7.72399 -5.53666,18.13633 -12.18519,22.74376 -6.8009,4.71303 -20.56599,5.9333 -27.11886,2.40408 z m 527.34286,-0.01 c -12.22561,-5.30171 -18.62626,-18.19614 -15.79995,-31.82983 1.36902,-6.60398 2.85404,-8.17785 91.55966,-97.03757 49.5924,-49.67859 92.0728,-91.22859 94.4009,-92.33333 5.5388,-2.62831 16.924,-2.5636 22.597,0.12843 6.4083,3.04094 13.4974,11.41806 15.2872,18.06469 1.6839,6.25344 0.8878,14.10886 -1.9948,19.68307 -1.0253,1.98268 -41.6581,43.61551 -90.29516,92.51738 -62.8359,63.17801 -89.86583,89.49407 -93.38822,90.92182 -6.28361,2.54697 -16.34795,2.49538 -22.36663,-0.11466 z M 624.45366,296.0852 c -6.8602,-1.68129 -12.82068,-5.83931 -17.10187,-11.93025 l -4.01846,-5.71715 -0.39699,-126.88557 c -0.2812,-89.87564 0.0333,-128.368138 1.07836,-131.968454 2.01422,-6.939434 9.60113,-14.9619039 16.72109,-17.6810396 15.57736,-5.9490499 33.46885,4.2690684 36.69263,20.9557586 1.75846,9.101973 1.53605,243.621635 -0.23888,251.897865 -1.57313,7.33524 -8.01095,15.89313 -14.42267,19.17229 -4.68996,2.3986 -13.22469,3.40364 -18.31321,2.15655 z"
       id="path1"
       sodipodi:nodetypes="sssssscsssscssscssssscccssssssssscsssscsssssssscssssssssssssssssssssssssssssssssssssssssscssscsssscsssscssssssssssssssssssssssscsssssss" />
  </g>
</svg>
